<svg viewBox="566.0550000000001 -86.34024896265555 1024.29 1762.7800829875519" xmlns="http://www.w3.org/2000/svg" xmlns:blush="http://design.blush" overflow="visible" xmlns:xlink="http://www.w3.org/1999/xlink" width="37px" height="64px"><g id="Master/Solo/Dish" stroke="none" stroke-width="1" fill="none" fill-rule="evenodd" blush:i="0"><g id="Dishes" transform="translate(-0.000000, 0.000000) scale(1 1)" blush:width="1797" blush:height="1734" blush:component="Dishes" blush:i="0.0"><g id="Dishes/Tempura" stroke="none" stroke-width="1" fill="none" fill-rule="evenodd" blush:i="0.0.0"><g id="Stick-BBQ" transform="translate(568.000000, -85.000000)" blush:i="0.0.0.0"><g id="Color" transform="translate(27.000000, 20.000000)" blush:i="0.0.0.0.0"><path d="M270.761747,900.332612 C240.326078,898.129274 203.264646,905.372473 151.459563,861.931581 C170.728314,837.511218 204.950029,847.509725 245.172769,838.144154 C271.922859,831.91559 295.321665,812.263544 324.746979,773.085938 C341.500196,747.426505 373.159561,695.57729 428.311923,662.570313 C445.28435,652.412841 467.709865,662.391965 486.422923,655.394531 C551.981284,630.880085 617.225974,610.04882 641.267578,652.240234 C691.836853,636.690598 684.90876,688.854725 719.828125,722.461118 C791.536129,738.288916 759.542889,762.875256 831.556641,828.514229 C875.840686,972.743189 759.353327,1179.60984 591.900391,1118.68865 C583.352696,1068.09147 547.337214,1034.08261 565.549573,1010.39007 C572.650138,1001.15291 600.926618,994.979073 626.452999,980.005968 C638.395484,957.350385 572.94525,950.276104 628.23989,887.887238 C573.846017,845.725526 644.893089,806.449191 575.349123,812.402229 C552.656022,815.03745 591.550112,786.357458 578.208875,756.462335 C591.566589,744.517828 606.522964,810.130814 609.585937,767.356047 C600.056483,703.301868 424.527228,749.678064 562.035156,763.792969 C549.043607,785.725697 579.433332,800.874782 478.617009,821.028736 C466.258926,823.568796 433.800559,783.034151 413.244033,818.65173 C401.737544,842.449319 399.282066,855.433632 381.558594,854.527344 C373.084013,854.093997 365.353849,849.840446 349.258587,849.981928 C329.012023,857.655627 356.043887,868.646259 366.5,900.332612 C376.907518,931.871702 364.245485,976.308621 324.746979,1049.64453 C248.670622,1038.82182 293.597966,912.851927 259.156447,912.974538" id="Fill-1" fill="#FEE967" blush:i="0.0.0.0.0.0"/><path d="M455.609738,1303.93763 C455.609738,1303.93763 455.624384,1303.94312 455.622553,1303.94495 C446.091268,1287.84265 381.655309,1314.19669 406.779749,1258.7326 C418.51352,1284.18811 457.47352,1243.71184 393.143749,1231.40499 C541.065422,1301.00777 427.838414,1188.11562 344.662109,1217.77284 C350.097835,1197.25655 322.103875,1208.61724 307.062105,1222.26563 C333.037198,1235.04384 300.81514,1232.0034 392.70252,1231.35741 C366.352896,1269.18075 358.60059,1289.85096 327.745787,1287.03945 C314.580787,1285.83985 300.94571,1272.24664 273.757347,1267.16165 C267.274262,1283.91533 257.027088,1300.19709 247.259766,1302.27102 C229.027608,1306.14232 207.857836,1284.90377 183.506726,1296.59012 C172.723155,1314.29917 236.871674,1351.44847 162.800072,1459.71032 C160.332117,1463.33558 158.816192,1465.4035 148.847339,1479.69042 L148.876632,1479.66663 C143.51414,1479.44886 146.333614,1482.52146 131.057192,1464.63855 C131.057192,1464.63855 131.108456,1464.6477 131.108456,1464.64953 C130.094177,1462.64933 129.08173,1460.65095 128.067452,1458.65074 C128.067452,1458.65074 128.122377,1458.64525 128.120546,1458.64525 C131.632072,1453.23024 95.5721023,1436.46913 118.137046,1371.05708 C118.691786,1370.01763 118.138877,1371.05891 120.118001,1368.04488 C141.181521,1341.56899 115.492888,1347.2911 56.3945312,1323.60095 C44.3791714,1318.78448 31.7943806,1294.955 17.0449219,1289.036 C1.56344819,1263.69761 81.4910616,1267.77068 136.602618,1277.04336 C224.429223,1176.7311 449.609233,1039.64673 570.216797,1245.13543 C618.923726,1281.27735 656.492275,1331.50879 667,1377.84644 C686.700452,1464.72277 628.97955,1567.3444 542.262783,1632.34477 C542.262783,1632.34477 542.260952,1632.28621 542.260952,1632.28621 C501.898538,1645.25919 507.500869,1614.30998 417.678662,1602.34534 C412.326862,1602.85748 377.130323,1559.4696 378.611328,1498.92387 C378.77084,1492.40276 388.529297,1479.69225 388.529297,1479.69042 C398.241834,1465.19488 426.025403,1489.91838 442.623681,1472.82787 C461.02341,1442.85927 418.888481,1444.15529 442.623681,1406.56175 C447.718023,1398.49296 464.302069,1390.39916 475.723204,1377.84644 C479.095587,1370.72768 444.844474,1364.14146 458.396256,1316.03586 C458.123463,1311.0692 459.015076,1312.98339 455.609738,1303.93763 Z" id="Fill-3" fill="#FEE967" blush:i="0.0.0.0.0.1"/><path d="M669.48704,308.584685 C607.947857,279.224538 643.0594,299.415634 586.60112,308.68863 C572.738453,310.965505 549.383739,299.739903 522.328188,301.857916 C516.367675,330.256716 505.391354,344.77247 492,346.154297 C472.875885,348.127676 450.116315,331.262447 441.006512,357.569058 C454.18154,367.905075 475.89707,391.626012 479.894531,418.46527 C487.526643,469.707845 469.254611,537.857604 438.969727,537.635742 C424.943011,537.532985 408.563864,518.403264 390.583984,483.978516 C368.451116,373.732931 442.734195,426.747361 283.09706,386.609645 C446.322616,338.139872 565.510076,-50.5553624 915.888267,307.884155 L915.847989,307.843895 C958.888743,382.37906 950.158142,464.026159 906.63508,518.551446 C841.173281,600.561376 713.437035,622.17384 695.839844,473.591797 C721.480022,455.625504 697.780394,484.162635 713.98063,402.923828 C718.770015,378.906653 733.491456,345.739125 745.961884,298.384548 C754.973215,314.845532 776.088143,316.448625 757.776211,286.549842 C837.417188,372.961313 760.636719,234.533203 686.164063,249.234375 C670.797931,277.650846 683.251359,249.128349 729.527344,271.240418 C699.785558,261.788391 710.952534,306.031814 665.945313,307.669678 L669.48704,308.584685 Z" id="Fill-5" fill="#FEE967" blush:i="0.0.0.0.0.2"/><path d="M610.53125,195.662109 C495.00057,187.16901 535.312304,224.151594 470.896484,245.498717 C467.930545,268.518474 229.25646,474.036516 259.615234,361.13375 C248.663227,321.876271 315.590123,354.094958 441.548828,212.28784 C471.918588,212.135949 491.77022,188.962105 527.193062,161.779064 C547.368776,156.642212 553.324457,181.618255 642.76219,125.52098 C736.204068,131.824872 837.867022,183.279539 906.63508,256.435547 C920.658567,271.353845 945.079301,283.09646 954.789063,300.046875 C991.328669,363.834384 998.616296,451.122939 946.560479,525.740234 C926.232027,554.879228 891.507796,574.452662 853.962739,601.39255 C853.583758,601.35961 853.949923,601.41817 852.72693,601.720123 C853.109573,601.897634 853.492216,602.071486 853.874859,602.247167 C851.588156,609.409845 681.200404,627.931425 692.489284,528.420708 C659.037109,518.551446 676.297449,438.566979 707.351938,476.757559 C696.06672,482.229304 713.042148,550.931721 767.379265,574.365061 C898.827156,591.250608 980.980028,416.884963 916.108333,307.455566 C916.0351,307.598307 915.961867,307.741048 915.888633,307.883789 C875.14907,277.523843 711.459254,101.884829 610.53125,195.662109 Z" id="Fill-7" fill="#FDEFC1" blush:i="0.0.0.0.0.3"/><path d="M620.305631,1296.16171 C619.690473,1296.60092 628.148894,1302.68755 621.468206,1295.16252 C621.080071,1295.49559 620.693767,1295.82865 620.305631,1296.16171 Z M631.63662,1306.62757 C630.849364,1304.62736 620.323939,1297.19018 629.970567,1308.00008 C630.527139,1307.54257 631.081879,1307.08507 631.63662,1306.62757 Z M570.745953,1598.79922 C645.172735,1551.46772 652.416703,1475.51426 655,1384.38867 C656.026377,1348.18331 611.449865,1305.04739 570.745953,1257.98242 C509.001825,1186.58915 434.706182,1119.09072 372.395169,1155.25789 C261.00765,1165.89943 231.339097,1208.19656 136.595627,1283.53278 C72.8224282,1253.63766 1.91449586,1326.30206 0.177040977,1271.1509 C0.177040977,1271.1509 0.164225188,1271.15273 0.164225188,1271.15273 C4.83466504,1267.63178 -2.1755718,1270.32739 40.1092102,1255.17853 L40.1073793,1255.19317 C240.145376,1227.4538 86.5536312,1232.38935 235.788007,1162.22476 C307.752327,1135.11492 292.490552,1139.19219 440.527567,1116.27857 C476.94821,1136.02443 518.38715,1153.5633 564.34274,1182.29087 C564.34274,1182.29087 564.335417,1182.28538 564.337248,1182.28538 C582.061485,1217.5278 622.669229,1231.46703 643.222094,1271.14175 C643.222094,1271.14175 643.209278,1271.13626 643.209278,1271.13443 C645.523443,1275.47339 643.229417,1271.12345 650.175575,1284.14217 C654.609838,1294.81665 663.784019,1291.57709 689,1339.37891 C689,1339.37891 700.022495,1351.55652 700.024326,1351.55469 C699.804627,1351.83102 710.595402,1356.91949 711.117187,1357.50692 C714.730536,1363.06233 715.269879,1378.04805 713.080276,1398.12842 C704.26315,1478.98833 651.195528,1642.45916 576.408434,1605.44063 L570.745953,1598.79922 Z" id="Fill-9" fill="#FDEFC1" blush:i="0.0.0.0.0.4"/><path d="M802.074604,1020.97266 C854.329361,925.507511 834.315886,788.967149 703.211889,750.552485 C690.789727,680.90578 634.411238,723.647607 614.590705,692.811857 C583.497768,629.345112 393.478058,694.48449 330.759415,777.944147 C275.336618,838.761031 249.643626,857.082773 147.119141,865.786324 C159.07078,846.311306 183.338107,804.552014 219.412724,812.095335 C224.017254,815.658374 235.025468,792.875238 278.366637,816.610531 C288.114992,815.902262 285.97216,759.943417 344.492187,712.166016 C386.371087,677.9749 459.143133,646.218696 576.472439,628.032767 C605.45077,657.146473 618.221235,633.028932 773.030479,732.089465 C802.76128,751.778595 790.334907,778.23329 855.00155,816.610531 C890.937989,861.510447 882.527381,966.34267 841.014306,1044.43712 C801.67127,1118.4493 721.839019,1173.08551 654.235434,1117.47778 C728.081836,1115.47969 773.261665,1073.61153 802.074604,1020.97266 Z" id="Fill-11" fill="#FDEFC1" blush:i="0.0.0.0.0.5"/><path d="M371.429687,1251.53196 C375.84015,1248.20134 377.36623,1236.36287 392.699407,1231.35595 C453.563422,1209.178 278.620573,1580.24279 266.476697,1675.62499 C281.835505,1701.27997 209.338415,1747.42562 217.870069,1692.37512 C248.567546,1603.28816 282.657546,1506.30836 316.97823,1406.86718 C338.415385,1369.89722 337.082359,1291.54823 367.626047,1257.19336 L371.429687,1251.53196 Z" id="Fill-13" fill="#715232" blush:i="0.0.0.0.0.6"/><path d="M608.822135,631.811606 C592.324552,615.720285 585.490074,642.16766 613.421172,562.455873 C651.403511,474.697511 660.893969,350.789363 713.98063,267.962891 C761.962946,256.386217 737.221698,334.295113 693.50521,465.468747 C673.170214,450.674907 648.582206,689.993268 608.822135,631.811606 Z" id="Fill-15" fill="#715131" blush:i="0.0.0.0.0.7"/><path d="M557.481167,866.926257 C550.731435,856.303312 489.977992,1034.95729 469.341953,1097.22739 C445.586476,1118.30113 426.883173,1113.49598 428.311923,1089.25948 C431.852639,1029.19681 506.008058,860.835866 545.733633,751.949336 C607.894382,752.156311 579.622735,795.14558 557.481167,866.926257 Z" id="Fill-17" fill="#715232" blush:i="0.0.0.0.0.8"/><path d="M804.19262,145.242135 C710.824102,149.302938 822.074308,-79.5477385 836.816128,33.4611682 C829.00582,70.0413349 823.835564,101.050936 804.19262,145.242135 Z" id="Fill-19" fill="#715132" blush:i="0.0.0.0.0.9"/><path d="M324.746979,1497.72412 C347.405295,1432.37246 370.407806,1357.67675 398.060618,1284.35537 C391.93284,1304.88814 392.385054,1311.30234 324.746979,1497.72412" id="Fill-21" fill="#E1DAD3" blush:i="0.0.0.0.0.10"/><path d="M609.283686,142.155449 C619.964731,126.801624 658.580536,106.753812 683.291209,132.180038 C678.071521,135.883988 671.526314,108.642387 609.283686,142.155449 Z" id="Fill-23" fill="#FEEB74" blush:i="0.0.0.0.0.11"/><path d="M673.478342,518.489218 C674.688518,509.467245 675.898695,500.447101 677.107041,491.425128 C677.063101,505.701074 683.103,517.55042 692.48965,528.420708 C684.426688,529.591918 683.932364,535.768218 673.478342,518.489218" id="Fill-25" fill="#FEE967" blush:i="0.0.0.0.0.12"/><path d="M962.625987,330.583842 C954.762585,323.454105 966.500017,312.398985 930.494972,286.793417 C949.456848,294.708231 962.01266,297.881477 962.625987,330.583842" id="Fill-27" fill="#FEEA72" blush:i="0.0.0.0.0.13"/><path d="M855.00155,980.728824 C855.094922,971.231047 857.912565,953.009589 864.80746,933.854824 C866.037776,941.061423 873.238418,944.783673 855.00155,980.728824" id="Fill-29" fill="#FEEB74" blush:i="0.0.0.0.0.14"/><path d="M811.033506,1076.49716 C808.765111,1068.21268 832.012953,1068.83489 833.816318,1026.70246 C837.6281,1047.26633 837.596976,1059.49449 811.033506,1076.49716" id="Fill-31" fill="#FEEB7A" blush:i="0.0.0.0.0.15"/><path d="M279.099517,1631.53133 C286.962919,1607.01645 301.413637,1560.96962 314.762197,1526.67148 C313.500758,1531.30691 315.767321,1536.01371 279.099517,1631.53133" id="Fill-33" fill="#E1DAD3" blush:i="0.0.0.0.0.16"/><path d="M863.734961,874.55667 C856.746694,868.883624 876.351191,865.87691 844.882935,821.028736 C843.758807,826.888443 869.368416,817.211325 863.734961,874.55667" id="Fill-35" fill="#FEEB7A" blush:i="0.0.0.0.0.17"/><path d="M234.758716,819.256732 C229.844776,817.234566 235.317118,836.689454 204.066731,826.192489 C214.006291,822.58919 224.013592,819.293333 234.758716,819.256732" id="Fill-39" fill="#FEEA72" blush:i="0.0.0.0.0.18"/><path d="M281.718515,352.749531 C285.361861,358.040104 281.696545,350.849976 271.753323,376.762986 C262.264147,375.040942 261.284654,367.964275 281.718515,352.749531" id="Fill-41" fill="#FEEB7A" blush:i="0.0.0.0.0.19"/><path d="M349.459483,324.0635 C342.478539,328.104172 345.054513,331.720282 313.610058,332.77071 C324.635298,326.067366 336.951272,324.672894 349.459483,324.0635" id="Fill-43" fill="#FEEB7A" blush:i="0.0.0.0.0.20"/><path d="M504.804793,970.769152 C509.495372,958.112769 513.528684,936.355722 524.043124,916.130398 C518.435301,942.691234 523.087432,928.67149 504.804793,970.769152" id="Fill-45" fill="#D9D0C8" blush:i="0.0.0.0.0.21"/><path d="M312.451877,767.356047 C308.153095,771.888994 315.677794,767.334087 296.94111,787.799143 C298.242828,780.501044 295.954294,770.811116 312.451877,767.356047" id="Fill-47" fill="#FEEA72" blush:i="0.0.0.0.0.22"/><path d="M695.178403,1358.02353 C695.354162,1365.53025 706.542346,1357.73439 698.054632,1398.78528 C693.673463,1390.46421 699.803072,1399.35991 695.178403,1358.02353 Z" id="Fill-49" fill="#FEEB7A" blush:i="0.0.0.0.0.23"/><path d="M454.344453,668.371643 C448.689028,672.273234 444.461648,673.279742 428.311923,669.114629 C437.467889,666.680709 435.45581,663.412302 454.344453,668.371643" id="Fill-51" fill="#FEEB74" blush:i="0.0.0.0.0.24"/><path d="M877.025484,230.163608 C873.702533,225.883203 874.843138,232.767719 847.97392,205.160115 C854.956695,208.164999 869.178559,216.178634 877.025484,230.163608" id="Fill-53" fill="#FEEB7A" blush:i="0.0.0.0.0.25"/><path d="M574.462088,633.26903 C568.713291,630.443487 565.697918,640.340207 540.500245,635.386357 C546.765336,636.528286 555.260373,625.828189 574.462088,633.26903" id="Fill-55" fill="#FEEB7A" blush:i="0.0.0.0.0.26"/><path d="M454.310949,212.28784 C449.662479,216.119891 456.738626,214.163605 437.745626,230.82955 C438.496265,220.387486 444.245062,214.412487 454.310949,212.28784" id="Fill-57" fill="#FEEB7A" blush:i="0.0.0.0.0.27"/><path d="M853.962739,601.392184 C859.634641,596.498724 852.759885,597.913326 873.812566,582.36918 C872.031171,587.440151 865.971133,598.526381 853.962739,601.392184" id="Fill-59" fill="#FEEB7A" blush:i="0.0.0.0.0.28"/><path d="M767.044041,88.2649887 C768.664323,83.8143926 763.803477,135.23232 757.838642,130.088148 C760.37983,116.888251 760.650792,123.362843 767.044041,88.2649887" id="Fill-61" fill="#E1DAD3" blush:i="0.0.0.0.0.29"/><path d="M676.268339,673.197941 C670.384061,670.520629 676.488038,679.032028 650.290734,668.395982 C655.43902,671.131854 658.326234,663.387231 676.268339,673.197941" id="Fill-63" fill="#FEEB74" blush:i="0.0.0.0.0.30"/><path d="M266.455459,1675.60907 C264.214527,1665.1487 271.292504,1651.35954 278.54441,1633.17468 C277.385497,1646.45693 278.65426,1628.2556 266.455459,1675.60907" id="Fill-65" fill="#E1DAD3" blush:i="0.0.0.0.0.31"/><path d="M474.773737,971.494752 C471.582605,979.649299 474.839647,975.802607 460.85762,1013.0306 C464.182402,1002.1292 465.645233,990.755659 474.773737,971.494752" id="Fill-67" fill="#D9D0C8" blush:i="0.0.0.0.0.32"/><path d="M169.141874,1209.34837 C169.387205,1209.37216 169.628874,1209.41425 169.865051,1209.48196 C166.179596,1215.05619 162.495972,1220.62675 158.808686,1226.19732 C160.165329,1217.7884 157.278115,1219.7337 169.141874,1209.34837" id="Fill-69" fill="#FEEB7A" blush:i="0.0.0.0.0.33"/><path d="M315.39072,1524.73478 C318.382292,1515.9141 321.373863,1507.0916 324.367265,1498.27276 C322.455882,1502.17984 328.301713,1498.7449 315.39072,1524.73478" id="Fill-71" fill="#E1DAD3" blush:i="0.0.0.0.0.34"/><path d="M327.300433,1380.84089 C323.922558,1389.41634 320.546512,1397.98996 317.166806,1406.56175 C319.887415,1395.51212 316.471091,1400.62884 327.300433,1380.84089" id="Fill-73" fill="#E3DDD7" blush:i="0.0.0.0.0.35"/><path d="M756.962774,150.300662 C752.867214,154.734788 756.536192,154.090623 743.251711,150.307982 C747.823286,150.306152 752.39303,150.304322 756.962774,150.300662" id="Fill-75" fill="#FEEB7A" blush:i="0.0.0.0.0.36"/><path d="M508.690907,871.665979 C506.166196,879.24224 503.641486,886.818502 501.118606,894.394763 C503.643317,886.818502 506.166196,879.24224 508.690907,871.665979" id="Fill-77" fill="#D9D0C8" blush:i="0.0.0.0.0.37"/><path d="M251.696613,1602.49778 C251.731398,1595.82371 250.594455,1600.8343 259.523398,1580.49002 L251.696613,1602.49778 Z" id="Fill-79" fill="#E1DAD3" blush:i="0.0.0.0.0.38"/><path d="M449.940765,1044.37894 C447.27508,1052.24434 444.609396,1060.11157 441.945543,1067.97881 C444.611227,1060.11157 447.27508,1052.24617 449.940765,1044.37894" id="Fill-81" fill="#D9D0C8" blush:i="0.0.0.0.0.39"/><path d="M532.908721,800.831594 C530.189943,808.341975 527.471165,815.850526 524.752386,823.359077 C527.044582,818.103274 523.159567,823.924551 532.908721,800.831594" id="Fill-83" fill="#D9D0C8" blush:i="0.0.0.0.0.40"/><path d="M519.993152,837.775934 C517.600261,844.962402 515.20737,852.14887 512.816309,859.335339 C515.2092,852.14887 517.600261,844.962402 519.993152,837.775934" id="Fill-85" fill="#D9D0C8" blush:i="0.0.0.0.0.41"/><path d="M496.860285,994.736307 C499.2605,987.566309 501.658883,980.398141 504.059097,973.228142 C501.658883,980.396311 499.258669,987.566309 496.860285,994.736307" id="Fill-87" fill="#D9D0C8" blush:i="0.0.0.0.0.42"/><path d="M487.63548,1020.63175 C490.116251,1013.80396 492.597021,1006.97618 495.075961,1000.14839 C492.595191,1006.97435 490.11442,1013.80396 487.63548,1020.63175" id="Fill-89" fill="#D9D0C8" blush:i="0.0.0.0.0.43"/><path d="M286.29009,1493.3438 C288.03853,1483.80393 286.132639,1490.62074 293.622553,1472.736 C291.178398,1479.60588 288.734244,1486.47392 286.29009,1493.3438" id="Fill-91" fill="#E1DAD3" blush:i="0.0.0.0.0.44"/><path d="M481.369658,949.713367 C479.535169,955.853067 477.698849,961.996426 475.864361,968.136126 C477.70068,961.996426 479.535169,955.854897 481.369658,949.713367" id="Fill-93" fill="#D9D0C8" blush:i="0.0.0.0.0.45"/><path d="M271.749845,1537.63052 C271.412973,1537.63052 271.0761,1537.63235 270.739228,1537.63418 C272.566394,1533.40868 268.575191,1536.62402 276.574074,1521.6124 C274.966608,1526.95056 273.357311,1532.29054 271.749845,1537.63052" id="Fill-95" fill="#E1DAD3" blush:i="0.0.0.0.0.46"/><path d="M456.241922,1025.47305 C454.478836,1030.66298 452.713918,1035.85107 450.952663,1041.04099 C452.715749,1035.8529 454.478836,1030.66298 456.241922,1025.47305" id="Fill-97" fill="#D9D0C8" blush:i="0.0.0.0.0.47"/><path d="M469.58023,1084.43558 C466.033918,1079.54578 468.633692,1075.23244 470.848993,1070.88066 C470.426072,1075.39897 470.003151,1079.91545 469.58023,1084.43558" id="Fill-99" fill="#D9D0C8" blush:i="0.0.0.0.0.48"/><path d="M496.6913,907.599784 C495.490277,911.182953 494.287424,914.764292 493.086402,918.349291 C494.289255,914.766122 495.490277,911.182953 496.6913,907.599784" id="Fill-101" fill="#D9D0C8" blush:i="0.0.0.0.0.49"/><path d="M475.242978,1057.67528 C476.438508,1054.09394 477.635869,1050.51077 478.829568,1046.92943 C477.634038,1050.51077 476.438508,1054.09211 475.242978,1057.67528" id="Fill-103" fill="#D9D0C8" blush:i="0.0.0.0.0.50"/><path d="M214.950815,1695.37817 C215.928477,1694.37715 216.904308,1693.37613 217.881969,1692.37512 C216.820089,1695.68744 215.75821,1698.99977 214.69633,1702.31027 C212.90395,1700.76573 214.549864,1699.697 214.950815,1695.37817" id="Fill-105" fill="#E3DDD7" blush:i="0.0.0.0.0.51"/><path d="M331.4154,1369.88038 C330.322397,1372.74253 329.231224,1375.60833 328.13822,1378.46864 C328.332288,1376.13354 325.835039,1376.54347 331.4154,1369.88038" id="Fill-109" fill="#E3DDD7" blush:i="0.0.0.0.0.52"/><path d="M512.069149,861.745651 C511.157397,864.439433 510.245645,867.131385 509.333893,869.826997 C510.245645,867.133215 511.157397,864.439433 512.069149,861.745651" id="Fill-111" fill="#D9D0C8" blush:i="0.0.0.0.0.53"/><path d="M479.885772,1043.64803 C480.874419,1040.75112 481.863065,1037.8542 482.851712,1034.95729 C481.861235,1037.8542 480.874419,1040.75112 479.885772,1043.64803" id="Fill-113" fill="#D9D0C8" blush:i="0.0.0.0.0.54"/><path d="M302.423888,1446.42112 C301.880132,1442.07117 301.730004,1445.65434 305.743177,1436.81903 L302.423888,1446.42112 Z" id="Fill-117" fill="#E1DAD3" blush:i="0.0.0.0.0.55"/><path d="M483.899677,1031.67259 C484.902971,1028.78117 485.906264,1025.88975 486.907726,1022.99649 C485.904433,1025.88792 484.902971,1028.78117 483.899677,1031.67259" id="Fill-119" fill="#D9D0C8" blush:i="0.0.0.0.0.56"/><path d="M471.935772,1067.61171 L474.621595,1059.52121 L471.935772,1067.61171 Z" id="Fill-121" fill="#D9D0C8" blush:i="0.0.0.0.0.57"/><path d="M499.724065,898.626489 C498.922163,901.003679 498.120261,903.379038 497.316527,905.754397 C498.120261,903.379038 498.922163,901.003679 499.724065,898.626489" id="Fill-123" fill="#D9D0C8" blush:i="0.0.0.0.0.58"/><path d="M221.429014,1674.30262 C220.861457,1676.6487 220.29207,1678.99478 219.724514,1681.34269 C218.560108,1678.52995 218.944581,1680.94923 221.429014,1674.30262" id="Fill-125" fill="#E3DDD7" blush:i="0.0.0.0.0.59"/><path d="M216.971316,1713.25668 C216.989624,1712.4954 217.006102,1711.73594 217.02441,1710.97648 C218.946778,1712.13854 220.869147,1713.29877 222.789684,1714.46083 C221.493459,1713.84229 222.507737,1715.62838 216.971316,1713.25668" id="Fill-127" fill="#E3DDD7" blush:i="0.0.0.0.0.60"/><path d="M279.302556,1513.27211 C279.604642,1512.64991 276.821785,1509.17837 281.558135,1506.63465 C280.807495,1508.84714 280.055026,1511.05962 279.302556,1513.27211" id="Fill-129" fill="#E1DAD3" blush:i="0.0.0.0.0.61"/><path d="M222.877564,1665.50281 C223.578771,1665.14779 224.278147,1664.79094 224.979353,1664.43408 C224.029154,1666.89362 223.077124,1669.35316 222.126925,1671.80904 C222.604771,1670.31941 220.858162,1672.20799 222.877564,1665.50281" id="Fill-131" fill="#E3DDD7" blush:i="0.0.0.0.0.62"/><path d="M767.549532,80.164062 C767.210829,82.2319788 766.870295,84.2998956 766.531592,86.3696424 C764.087438,83.8442219 765.733352,81.9904168 767.549532,80.164062" id="Fill-133" fill="#E1DAD3" blush:i="0.0.0.0.0.63"/><path d="M331.955861,1368.34701 C332.409906,1367.79984 329.713097,1364.29536 334.475079,1361.89987 C333.634729,1364.04831 332.794379,1366.19675 331.955861,1368.34701" id="Fill-135" fill="#E3DDD7" blush:i="0.0.0.0.0.64"/><path d="M536.337494,790.845203 C535.546577,793.077821 534.755659,795.310439 533.966573,797.544887 C535.209705,795.725853 532.523881,796.712231 536.337494,790.845203" id="Fill-137" fill="#D9D0C8" blush:i="0.0.0.0.0.65"/><path d="M809.345666,134.245027 C810.171369,132.12221 810.997072,129.997562 811.822775,127.874745 C810.997072,129.997562 810.171369,132.12221 809.345666,134.245027" id="Fill-139" fill="#E3DDD7" blush:i="0.0.0.0.0.66"/><path d="M109.840653,1408.8414 C110.085984,1408.79565 110.329484,1408.73892 110.567491,1408.6767 C110.790852,1410.74461 111.016044,1412.81253 111.239405,1414.88045 C109.093676,1413.62506 110.441164,1415.08907 109.840653,1408.8414" id="Fill-141" fill="#FDEFC1" blush:i="0.0.0.0.0.67"/><path d="M490.795121,923.587343 C490.12687,925.444808 489.458618,927.300443 488.790366,929.157908 C489.458618,927.300443 490.12687,925.444808 490.795121,923.587343" id="Fill-143" fill="#D9D0C8" blush:i="0.0.0.0.0.68"/><path d="M824.586752,86.3636033 C825.081076,84.6708396 825.575399,82.9780759 826.067891,81.2871421 L824.586752,86.3636033 Z" id="Fill-145" fill="#E3DDD7" blush:i="0.0.0.0.0.69"/><path d="M800.026573,145.168934 C801.386878,145.238475 802.747182,145.306185 804.107487,145.375726 C803.364171,146.160802 802.620855,146.944049 801.875709,147.729125 C801.260551,146.876338 800.643562,146.021721 800.026573,145.168934" id="Fill-147" fill="#E3DDD7" blush:i="0.0.0.0.0.70"/><path d="M314.145392,1414.46028 C315.307967,1413.49037 312.111343,1413.05117 316.430264,1408.79821 C315.66864,1410.68496 314.907016,1412.57353 314.145392,1414.46028" id="Fill-149" fill="#E3DDD7" blush:i="0.0.0.0.0.71"/><path d="M518.393924,959.730136 C519.723105,960.442012 521.052285,961.153888 522.381465,961.867593 C521.052285,961.153888 519.723105,960.442012 518.393924,959.730136" id="Fill-151" fill="#D9D0C8" blush:i="0.0.0.0.0.72"/><path d="M217.883068,1684.36423 C218.392038,1684.00188 218.901008,1683.63954 219.409977,1683.27354 C219.186617,1684.63141 218.963256,1685.98745 218.739895,1687.34166 C218.758203,1686.81645 217.917853,1686.81096 217.883068,1684.36423" id="Fill-153" fill="#E3DDD7" blush:i="0.0.0.0.0.73"/><path d="M458.879595,1019.41644 C458.236974,1020.97378 457.594354,1022.52929 456.953565,1024.08663 C457.596185,1022.52929 458.236974,1020.97378 458.879595,1019.41644" id="Fill-155" fill="#D9D0C8" blush:i="0.0.0.0.0.74"/><path d="M357.457817,1291.03255 C357.798351,1290.48354 354.825088,1288.45406 358.310982,1287.03945 C358.027204,1288.3717 357.741595,1289.7003 357.457817,1291.03255" id="Fill-157" fill="#ECE7DE" blush:i="0.0.0.0.0.75"/><path d="M245.863598,1717.5832 C245.393075,1718.98133 246.365244,1719.41139 242.774992,1719.39126 C243.205237,1717.90163 242.513184,1718.59886 245.863598,1717.5832" id="Fill-159" fill="#E1DAD3" blush:i="0.0.0.0.0.76"/><path d="M353.700411,1302.08236 C354.20938,1302.04942 354.71835,1302.02014 355.225489,1301.98903 L354.438234,1305.01404 C353.874339,1304.1027 353.372692,1304.37354 353.700411,1302.08236" id="Fill-163" fill="#ECE7DE" blush:i="0.0.0.0.0.77"/><path d="M110.452515,1398.07762 C110.77291,1397.7592 108.484376,1395.21364 111.183015,1393.91067 C110.939515,1395.29966 110.696015,1396.68864 110.452515,1398.07762" id="Fill-169" fill="#FDEFC1" blush:i="0.0.0.0.0.78"/><path d="M528.43125,961.833555 C529.117811,961.533433 529.804371,961.23514 530.490931,960.935018 C529.804371,961.23514 529.117811,961.533433 528.43125,961.833555" id="Fill-171" fill="#D9D0C8" blush:i="0.0.0.0.0.79"/><path d="M531.15607,960.509356 L533.373202,958.642741 L531.15607,960.509356 Z" id="Fill-173" fill="#D9D0C8" blush:i="0.0.0.0.0.80"/><path d="M515.836808,956.382856 C516.343947,957.156952 516.851086,957.931048 517.358225,958.705145 C516.851086,957.931048 516.343947,957.156952 515.836808,956.382856" id="Fill-175" fill="#D9D0C8" blush:i="0.0.0.0.0.81"/><path d="M480.335423,945.72613 C480.472735,946.439836 480.611878,947.151712 480.74919,947.865418 C480.611878,947.151712 480.472735,946.439836 480.335423,945.72613" id="Fill-177" fill="#D9D0C8" blush:i="0.0.0.0.0.82"/><path d="M488.152139,930.630338 C487.610215,931.362344 487.066459,932.09801 486.524534,932.830016 C487.066459,932.09801 487.610215,931.362344 488.152139,930.630338" id="Fill-179" fill="#D9D0C8" blush:i="0.0.0.0.0.83"/><path d="M358.578832,1285.07951 C358.459829,1285.06304 358.736283,1285.11977 357.597509,1285.09781 C358.119295,1285.05755 356.400148,1283.06649 358.941336,1282.99329 L358.578832,1285.07951 Z" id="Fill-181" fill="#ECE7DE" blush:i="0.0.0.0.0.84"/><path d="M804.192071,145.24122 C804.719349,144.408563 805.246627,143.575906 805.772075,142.74325 C805.244797,143.574076 804.719349,144.406733 804.192071,145.24122" id="Fill-183" fill="#E3DDD7" blush:i="0.0.0.0.0.85"/><path d="M443.372489,1091.99153 C444.077358,1092.20564 444.780395,1092.42158 445.485264,1092.63753 C444.780395,1092.42158 444.077358,1092.20564 443.372489,1091.99153" id="Fill-185" fill="#D9D0C8" blush:i="0.0.0.0.0.86"/><path d="M815.476374,117.295978 L816.166595,115.242702 L815.476374,117.295978 Z" id="Fill-189" fill="#E3DDD7" blush:i="0.0.0.0.0.87"/><path d="M821.722057,96.3490793 C821.97105,95.4395619 822.220042,94.5300446 822.467204,93.6205272 C822.218211,94.5282145 821.969219,95.4395619 821.722057,96.3490793" id="Fill-191" fill="#E3DDD7" blush:i="0.0.0.0.0.88"/><path d="M823.386645,90.3336375 C823.610006,89.6455519 823.831536,88.9592964 824.054897,88.2712108 C823.831536,88.9592964 823.610006,89.6455519 823.386645,90.3336375" id="Fill-193" fill="#E3DDD7" blush:i="0.0.0.0.0.89"/><path d="M454.407433,1095.72494 C455.101317,1095.99213 455.79337,1096.25565 456.487253,1096.52283 C455.79337,1096.25565 455.101317,1095.99213 454.407433,1095.72494" id="Fill-195" fill="#D9D0C8" blush:i="0.0.0.0.0.90"/><path d="M461.531548,1096.63812 C462.234585,1096.42035 462.935792,1096.20441 463.63883,1095.98664 C462.935792,1096.20441 462.234585,1096.42218 461.531548,1096.63812" id="Fill-197" fill="#D9D0C8" blush:i="0.0.0.0.0.91"/><path d="M826.566059,79.3749596 C826.749142,78.685044 826.932225,77.9932984 827.115308,77.3033828 C826.932225,77.9932984 826.749142,78.685044 826.566059,79.3749596" id="Fill-199" fill="#E3DDD7" blush:i="0.0.0.0.0.92"/><path d="M827.633432,75.3879063 C827.78539,74.6943307 827.935518,73.998925 828.087477,73.3035194 C827.935518,73.998925 827.78539,74.6943307 827.633432,75.3879063" id="Fill-201" fill="#E3DDD7" blush:i="0.0.0.0.0.93"/><path d="M524.000832,825.802147 C523.702407,826.706174 523.403982,827.610201 523.105558,828.514229 C523.405813,827.610201 523.702407,826.706174 524.000832,825.802147" id="Fill-203" fill="#D9D0C8" blush:i="0.0.0.0.0.94"/><path d="M828.576491,71.3902389 C828.741265,70.6966632 828.906039,70.0030876 829.072645,69.309512 C828.906039,70.0030876 828.741265,70.6966632 828.576491,71.3902389" id="Fill-205" fill="#E3DDD7" blush:i="0.0.0.0.0.95"/><path d="M256.691109,1709.16221 C256.079613,1709.22626 255.466286,1709.29031 254.852959,1709.35436 C255.38756,1708.51804 255.920331,1707.68173 256.454932,1706.84358 C256.533658,1707.61584 256.612383,1708.38994 256.691109,1709.16221" id="Fill-207" fill="#E1DAD3" blush:i="0.0.0.0.0.96"/><path d="M829.546097,67.3923884 C829.79692,66.4682309 830.047743,65.5422434 830.298567,64.6162559 C830.045912,65.5422434 829.795089,66.4664009 829.546097,67.3923884" id="Fill-209" fill="#E3DDD7" blush:i="0.0.0.0.0.97"/><path d="M355.544603,1300.04683 C355.429261,1300.02853 355.696561,1300.09258 354.594403,1300.07062 C355.11802,1300.02853 353.406197,1298.04114 355.9602,1297.96611 C355.821058,1298.65968 355.683745,1299.35326 355.544603,1300.04683" id="Fill-213" fill="#ECE7DE" blush:i="0.0.0.0.0.98"/><path d="M268.286286,1681.25631 C268.639636,1680.79149 271.550651,1682.55562 268.366842,1683.49442 C268.33938,1682.74777 268.313748,1682.00113 268.286286,1681.25631" id="Fill-217" fill="#E1DAD3" blush:i="0.0.0.0.0.99"/><path d="M853.875591,602.247167 C853.492948,602.071486 853.110306,601.897634 852.727663,601.720123 C853.157907,601.592022 853.589982,601.463921 854.020227,601.33399 C854.042197,601.650582 853.992764,601.954365 853.875591,602.247167" id="Fill-221" fill="#FEEB7A" blush:i="0.0.0.0.0.100"/><path d="M695.120548,1357.9388 C695.250537,1357.78691 694.428496,1357.75763 694.919158,1357.07504 C695.01253,1357.35869 695.08027,1357.646 695.120548,1357.9388" id="Fill-223" fill="#FEEB7A" blush:i="0.0.0.0.0.101"/><path d="M550.693558,746.051747 C403.905167,739.716235 643.269329,688.338568 627.4876,780.884249 C605.523167,786.648796 627.817148,762.221758 550.693558,746.051747" id="Fill-225" fill="#FDEFBF" blush:i="0.0.0.0.0.102"/><path d="M550.693558,746.051747 C555.373152,748.88827 560.572701,744.948248 580.298032,755.016989 C575.109468,757.622931 572.894167,754.945619 549.368039,751.560091 C549.809269,749.724586 550.252329,747.889082 550.693558,746.051747" id="Fill-227" fill="#ECE7DE" blush:i="0.0.0.0.0.103"/><path d="M244.727386,875.771983 C241.349511,877.239655 241.664413,886.087777 231.911597,889.804537 C234.934292,891.230118 232.023277,877.117044 244.727386,875.771983" id="Fill-229" fill="#FDEFBF" blush:i="0.0.0.0.0.104"/><path d="M549.250683,751.949336 C548.66848,753.455438 548.084447,754.96154 547.504074,756.460322 C548.088108,754.95239 548.66848,753.449948 549.250683,751.949336" id="Fill-231" fill="#ECE7DE" blush:i="0.0.0.0.0.105"/><path d="M393.144481,1231.40517 C393.144481,1231.40517 392.697759,1231.35393 392.69959,1231.35576 C213.708782,1257.89464 426.828038,1153.3953 466.198143,1251.65063 C455.674549,1281.17426 447.961274,1235.06337 393.144481,1231.40517" id="Fill-233" fill="#FDEFBF" blush:i="0.0.0.0.0.106"/><path d="M362.65169,1273.14525 C361.630089,1272.44435 360.608487,1271.74346 359.588717,1271.04439 C364.945717,1268.40002 370.304547,1265.75931 375.663378,1263.11677 C373.880153,1268.4659 375.460156,1267.50697 362.65169,1273.14525" id="Fill-235" fill="#ECE7DE" blush:i="0.0.0.0.0.107"/><path d="M358.578832,1272.07469 C357.542584,1272.6969 356.504505,1273.32093 355.468257,1273.94314 C356.504505,1273.32093 357.542584,1272.6969 358.578832,1272.07469" id="Fill-237" fill="#ECE7DE" blush:i="0.0.0.0.0.108"/><path d="M111.110515,1392.021 C111.418094,1391.31278 111.727503,1390.60457 112.036913,1389.89452 C111.727503,1390.60457 111.419924,1391.31278 111.110515,1392.021" id="Fill-239" fill="#FDEFC1" blush:i="0.0.0.0.0.109"/><path d="M736.87732,274.184981 C633.263493,257.083492 667.150271,217.436221 756.485478,258.09366 C809.489752,289.116072 827.928012,352.211324 736.87732,274.184981" id="Fill-241" fill="#FDEFBF" blush:i="0.0.0.0.0.110"/><path d="M718.528405,390.666158 C719.022728,390.706418 719.517052,390.746678 720.009544,390.788769 C717.175424,394.917282 722.741138,392.294871 713.98063,405.582609 C715.496555,400.610458 717.01248,395.638308 718.528405,390.666158" id="Fill-243" fill="#D9D0C8" blush:i="0.0.0.0.0.111"/><path d="M915.888633,307.883789 C915.961867,307.741048 916.0351,307.598307 916.108333,307.455566 C916.079039,307.592817 915.996652,307.435436 915.888633,307.883789" id="Fill-245" fill="#FEE967" blush:i="0.0.0.0.0.112"/><path d="M629.97075,1307.99953 C628.117953,1306.8576 622.630965,1295.28276 631.636803,1306.62702 C631.082062,1307.08452 630.525491,1307.54203 629.97075,1307.99953" id="Fill-251" fill="#FEEB7A" blush:i="0.0.0.0.0.113"/><path d="M621.468206,1295.16252 C621.993654,1294.61718 626.825206,1303.82215 620.305631,1296.16171 C620.693767,1295.82865 621.080071,1295.49559 621.468206,1295.16252" id="Fill-253" fill="#FEEB7A" blush:i="0.0.0.0.0.114"/><path d="M348.973581,1323.60095 C350.101371,1320.06537 351.22916,1316.52978 352.35695,1312.99419 C351.22916,1316.52978 350.101371,1320.06537 348.973581,1323.60095" id="Fill-255" fill="#ECE7DE" blush:i="0.0.0.0.0.115"/><path d="M298.089038,1459.28118 C299.165565,1456.08781 300.243922,1452.89443 301.320448,1449.70106 C300.243922,1452.89443 299.165565,1456.08781 298.089038,1459.28118" id="Fill-257" fill="#E1DAD3" blush:i="0.0.0.0.0.116"/><path d="M266.704818,1555.58407 C267.301667,1553.57288 267.898517,1551.56352 268.495367,1549.55051 C267.898517,1551.56352 267.301667,1553.57288 266.704818,1555.58407" id="Fill-259" fill="#E3DDD7" blush:i="0.0.0.0.0.117"/><path d="M282.337518,1504.33999 C283.040555,1502.43861 283.745424,1500.53539 284.448461,1498.63218 C283.745424,1500.53539 283.042386,1502.43861 282.337518,1504.33999" id="Fill-261" fill="#E1DAD3" blush:i="0.0.0.0.0.118"/><path d="M216.60515,1710.37038 C215.969853,1708.69958 215.334556,1707.02878 214.699259,1705.3598 C215.334556,1707.03061 215.969853,1708.69958 216.60515,1710.37038" id="Fill-263" fill="#E3DDD7" blush:i="0.0.0.0.0.119"/><path d="M295.435804,1467.41981 C296.085747,1465.5111 296.737522,1463.60057 297.387465,1461.69003 C296.737522,1463.60057 296.085747,1465.5111 295.435804,1467.41981" id="Fill-265" fill="#E1DAD3" blush:i="0.0.0.0.0.120"/><path d="M260.163273,1578.07678 C260.5569,1576.87629 260.950528,1575.67397 261.345987,1574.47165 C260.950528,1575.67397 260.5569,1576.87446 260.163273,1578.07678" id="Fill-267" fill="#E1DAD3" blush:i="0.0.0.0.0.121"/><path d="M277.036358,1520.08452 C277.448294,1518.91149 277.858399,1517.74028 278.270335,1516.56724 C277.858399,1517.74028 277.448294,1518.91149 277.036358,1520.08452" id="Fill-269" fill="#E1DAD3" blush:i="0.0.0.0.0.122"/><path d="M268.658676,1676.45252 C268.367575,1677.09303 268.074642,1677.72987 267.783541,1678.36855 C267.347804,1677.45537 266.912067,1676.54036 266.47633,1675.62536 C267.203169,1675.90169 267.931838,1676.17802 268.658676,1676.45252" id="Fill-271" fill="#E1DAD3" blush:i="0.0.0.0.0.123"/><path d="M249.800608,1715.3601 C248.96392,1715.89996 248.127232,1716.43798 247.290544,1716.976 C248.125402,1716.43798 248.96392,1715.89996 249.800608,1715.3601" id="Fill-273" fill="#E1DAD3" blush:i="0.0.0.0.0.124"/><path d="M231.301932,1715.99804 C230.456089,1715.50394 229.610247,1715.00984 228.766236,1714.51573 C229.610247,1715.00984 230.456089,1715.50394 231.301932,1715.99804" id="Fill-275" fill="#E3DDD7" blush:i="0.0.0.0.0.125"/><path d="M270.674966,1541.60513 L271.348711,1539.53539 C271.123519,1540.2253 270.900158,1540.91522 270.674966,1541.60513" id="Fill-277" fill="#E1DAD3" blush:i="0.0.0.0.0.126"/><path d="M265.329867,1560.23944 C265.619137,1559.32443 265.906577,1558.40943 266.195848,1557.49442 C265.906577,1558.40943 265.619137,1559.32443 265.329867,1560.23944" id="Fill-279" fill="#E3DDD7" blush:i="0.0.0.0.0.127"/><path d="M263.602847,1566.54275 C263.791423,1565.851 263.978167,1565.15742 264.164911,1564.46385 C263.978167,1565.15742 263.789592,1565.851 263.602847,1566.54275" id="Fill-281" fill="#E1DAD3" blush:i="0.0.0.0.0.128"/><path d="M353.222565,1309.74372 L353.982358,1306.97124 L353.222565,1309.74372 Z" id="Fill-283" fill="#ECE7DE" blush:i="0.0.0.0.0.129"/><path d="M359.575535,1279.082 C359.791572,1278.40307 360.00761,1277.7223 360.223647,1277.04336 C360.00761,1277.7223 359.791572,1278.40307 359.575535,1279.082" id="Fill-285" fill="#ECE7DE" blush:i="0.0.0.0.0.130"/><path d="M249.340155,1608.13441 C249.730121,1607.2377 250.121918,1606.33916 250.511885,1605.44063 C250.121918,1606.33916 249.730121,1607.2377 249.340155,1608.13441" id="Fill-287" fill="#E1DAD3" blush:i="0.0.0.0.0.131"/><path d="M356.580668,1295.05346 C356.73995,1294.36903 356.901062,1293.6846 357.060344,1293.00018 C356.901062,1293.6846 356.73995,1294.36903 356.580668,1295.05346" id="Fill-289" fill="#ECE7DE" blush:i="0.0.0.0.0.132"/><path d="M267.984932,1685.40971 C267.664537,1686.08133 267.344142,1686.75477 267.023748,1687.42822 C267.344142,1686.75477 267.664537,1686.08133 267.984932,1685.40971" id="Fill-291" fill="#E1DAD3" blush:i="0.0.0.0.0.133"/><path d="M305.900445,1435.1087 C306.06522,1434.67133 306.229994,1434.23212 306.392938,1433.79475 C306.228163,1434.23212 306.06522,1434.67133 305.900445,1435.1087" id="Fill-293" fill="#E1DAD3" blush:i="0.0.0.0.0.134"/><path d="M750.485308,281.006361 C749.346534,283.120028 748.20959,285.233696 747.072647,287.349193 C745.510951,281.549876 741.616782,277.532993 736.937188,274.114525 C741.452008,276.413024 745.968658,278.709693 750.485308,281.006361" id="Fill-295" fill="#FEE967" blush:i="0.0.0.0.0.135"/></g><g id="Outline" fill="#000" blush:i="0.0.0.0.1"><g id="Group-300" blush:i="0.0.0.0.1.0"><path d="M824.128086,48.1485824 C783.315739,161.337029 790.177894,140.169196 822.630822,158.104224 C838.101332,133.246199 889.240775,-36.6965568 824.128086,48.1485824 Z M683.797089,507.472266 C726.108531,453.101854 709.916845,467.569894 725.605172,409.970336 C744.077532,375.534644 787.692216,301.31916 742.501561,295.57073 C606.662356,694.067538 618.380554,620.124656 648.305704,650.030395 C666.086174,605.347423 684.926444,555.993623 683.797089,507.472266 Z M601.381663,786.476016 C586.95997,785.145936 574.793326,769.210601 569.96291,795.524944 C533.728383,901.536087 497.975252,1001.79148 462.919501,1107.00128 C471.511381,1108.73386 479.442488,1110.33106 488.164327,1112.08925 C525.744195,1004.0034 563.426564,895.633975 601.381663,786.476016 Z M394.301602,1382.05139 C413.628757,1310.64791 451.744931,1264.74098 411.673894,1265.13799 C405.675685,1266.4022 405.075315,1274.26559 401.742163,1283.08765 C227.614728,1798.44663 238.900952,1719.37371 266.210466,1734.22595 C319.162002,1628.72525 348.959024,1496.7364 394.301602,1382.05139 Z M498.462137,1388.71276 C503.023485,1394.25079 505.862429,1403.27777 501.560998,1410.15685 C436.340315,1448.93954 494.470042,1452.60778 469.605938,1494.1476 C459.82064,1510.56044 410.908788,1493.74876 413.82827,1527.26419 C438.793046,1567.79592 406.724502,1600.8375 448.226909,1622.25964 C467.568707,1632.92772 487.966644,1615.95869 506.301725,1634.9329 C589.414532,1685.48322 573.482762,1620.17762 599.439612,1614.74204 C615.528796,1610.87072 631.493513,1616.56793 647.320951,1605.91998 C694.922238,1571.13484 639.060372,1559.00679 692.698306,1526.76106 C701.506174,1517.2273 706.329268,1509.57798 711.529424,1495.77589 C718.640514,1479.28986 701.16755,1470.90323 700.515929,1453.06517 C720.355595,1422.57032 744.421646,1388.23708 704.337797,1364.60302 C606.935085,1331.33458 722.73328,1288.794 604.729458,1251.97807 C598.18396,1247.8744 596.24374,1242.73704 594.664108,1232.41109 C571.926925,1166.19255 537.790033,1201.7589 517.73438,1186.95605 C499.294967,1164.82771 485.825081,1130.44873 449.235457,1138.3853 C362.414267,1176.60266 431.037657,1183.25122 333.548917,1151.88368 C280.853636,1201.55399 326.177911,1192.23246 247.578861,1185.16493 C220.897174,1195.92082 245.351269,1245.52344 199.188673,1230.58155 C187.512575,1230.63094 186.536973,1241.04288 184.380766,1253.71614 C207.460234,1357.01224 132.637292,1213.69119 32.1668363,1296.31709 C54.078511,1314.98028 82.572291,1334.71923 112.008725,1344.38106 C218.396852,1364.30846 95.0391206,1390.25141 154.349454,1475.89423 C161.140224,1482.45863 165.55697,1502.2287 174.74373,1496.26438 C192.610228,1464.7834 220.421271,1437.33657 222.850207,1396.84875 C229.157752,1343.9749 186.297191,1317.72642 223.370039,1305.01657 C290.183167,1326.35639 258.865085,1317.40625 307.965467,1280.92513 C341.82963,1284.10854 371.29352,1327.42667 383.410744,1267.23099 C359.509428,1263.24075 355.661935,1284.37199 333.268866,1252.61658 C283.029978,1235.83966 295.818957,1193.60645 339.391542,1223.21031 C347.584396,1225.95646 356.716244,1202.87675 370.724267,1215.07432 C386.806129,1223.75734 352.887054,1253.82225 382.00683,1245.92228 C497.027106,1228.5416 495.377919,1325.45442 453.514924,1279.14498 C449.43314,1290.91444 445.761365,1301.50751 441.85896,1312.76287 C526.207285,1318.03562 454.386193,1348.21579 498.462137,1388.71276 Z M660.869544,897.311668 C666.291178,902.445371 668.559039,907.83521 667.863489,914.822241 C626.242106,963.484473 639.79253,939.204584 653.983593,996.526052 C645.891411,1041.68105 563.719428,997.973222 617.324415,1081.89993 C612.984545,1137.79252 650.13793,1146.32003 692.85389,1135.41777 C712.752129,1140.68137 727.948079,1153.81568 751.214247,1152.61366 C781.327928,1151.89648 780.852025,1136.918 789.88137,1113.68278 C800.796024,1098.30729 819.004807,1105.68401 836.428349,1095.68189 C883.052205,1065.39195 846.934824,1048.34242 859.339421,1023.24472 C924.45211,946.850252 872.492649,956.868839 873.409677,923.624181 C906.138994,869.383667 889.58672,839.450485 832.117766,830.974204 C822.94748,829.426409 815.380622,822.82907 813.80282,813.216642 C809.576435,711.611043 742.192224,779.598757 722.193313,708.983817 C685.32364,672.553921 674.493184,697.164957 649.056166,694.371243 C589.420023,634.717105 574.385147,639.431842 521.343922,697.036889 C511.155936,700.540468 506.157123,697.373526 493.891637,694.248663 C414.745299,663.645867 468.103183,743.119463 403.24858,733.713774 C346.268341,726.395594 377.855491,762.439456 358.233642,785.610641 C310.784278,791.834752 320.95579,804.315907 335.172479,841.821575 C328.683723,884.327389 261.65644,797.209955 185.155024,876.507914 C162.769277,901.76478 312.149753,919.933989 313.590275,926.258725 C310.947183,987.341737 289.200244,999.517358 338.035218,1048.94068 C359.05549,1090.82811 388.643847,974.725196 386.796977,957.939123 C386.057497,898.844826 341.55324,881.817253 365.791349,862.630817 C404.474945,840.496984 397.237558,906.038597 449.070722,822.399127 C501.410905,823.930456 532.256745,847.886516 552.436865,778.62178 C488.299776,759.462787 585.85258,748.628223 606.175471,765.024603 C665.645048,783.561551 647.615644,819.867037 621.267089,796.650114 C617.324415,808.006099 613.658131,818.566231 609.741083,829.850863 C666.904361,826.274103 612.761237,869.471485 660.869544,897.311668 Z M377.970806,420.693298 C485.076448,416.194447 371.278877,469.337234 448.765046,539.502106 C481.737805,591.023917 493.205239,486.952092 498.571961,464.717634 C504.246189,400.968975 409.334647,345.081871 518.806992,361.106854 C528.896137,355.874356 530.322016,351.818255 537.456901,339.518225 C552.87616,288.166562 586.883093,335.76034 617.273164,316.897734 C630.83274,310.622395 642.957286,285.813768 660.38998,297.012411 C678.071609,319.72621 715.428168,328.916013 720.419659,291.395709 C655.297818,272.805704 759.496791,247.826929 801.623363,312.605622 C811.758267,329.437434 800.550751,334.949852 783.006402,332.999557 C777.824549,348.931233 765.260709,367.625522 769.424861,384.625652 C772.37912,389.126332 773.001455,394.419205 766.042288,398.952817 C720.992573,433.112248 763.454108,448.731072 755.134956,482.541059 C717.437943,507.300289 675.44133,505.717732 729.01337,553.404817 C736.005484,583.425817 733.761418,609.123603 770.4389,616.511305 C834.746215,597.696267 890.035167,658.735369 901.844885,585.396237 C907.193303,573.789605 913.350756,573.105355 927.03663,569.378573 C999.185362,547.272183 955.038033,509.94581 965.985633,489.293909 C979.254177,471.786995 992.001057,458.098341 993.895517,434.200827 C996.005964,416.165174 983.74963,414.930232 974.669034,398.693022 C976.73006,368.831192 1003.81627,337.761862 971.819107,314.204644 C863.018517,285.072802 938.163609,290.480937 888.655048,235.071343 C872.59149,218.942076 849.27041,227.427505 830.179376,217.926679 C810.952893,185.331509 789.932621,157.43461 747.959803,179.25925 C735.787667,180.971704 732.533222,174.731127 722.171348,164.205756 C638.015215,89.5164195 637.334308,211.159193 591.513996,189.085735 C496.576829,161.552916 578.241792,242.696886 483.233239,233.036889 C474.394255,233.995571 466.732216,238.693842 465.588218,248.895384 C470.554084,326.11681 417.93751,259.724459 428.813725,320.37021 C473.39852,405.702008 365.167184,293.002049 289.059303,391.405945 C314.155868,405.390985 347.384883,417.722117 377.970806,420.693298 Z M615.12794,349.309949 C599.24193,355.001663 583.786063,348.283574 566.889674,348.206733 C555.173307,369.866714 538.866306,392.55124 509.898453,392.908001 C543.510022,456.53591 523.205435,507.322243 503.065584,557.266986 C474.591938,655.824564 365.569871,503.222233 391.762842,453.445808 C339.279888,443.107051 261.19518,428.126738 255.299473,394.611307 C274.125099,335.193181 349.879713,317.283768 397.57069,312.689781 C396.741521,257.675369 429.57517,270.736489 435.311632,255.948279 C439.426363,197.6663 471.390575,210.802432 508.161407,198.628641 C538.815055,107.811867 595.54819,185.841952 609.539739,148.228341 C687.924633,60.0991689 737.660162,152.663158 752.003148,145.141899 C781.223596,138.696413 778.693988,86.2561707 792.32861,62.634918 C807.400094,11.5064595 858.739051,-27.0566854 879.085736,24.7157729 C883.403641,49.5518433 875.137571,73.9835843 867.04722,99.1142114 C788.968002,260.902686 916.526494,139.722787 936.979343,268.230013 C951.247282,282.580962 991.592878,279.468906 1003.78332,304.45317 C1021.85848,329.194104 1019.60709,362.656478 1008.19274,391.140661 C1026.31733,414.555175 1027.08609,436.537156 1017.1086,464.276714 C1013.25379,482.032446 999.456261,488.161421 995.702118,504.790153 C1013.96947,553.849396 970.86547,589.298656 929.681552,601.229118 C911.589915,665.277821 854.100826,657.96696 807.116382,639.816047 C770.265013,652.990599 733.294667,642.639034 714.126756,611.873409 C703.903993,597.392562 705.117546,583.453261 701.024779,567.329482 C691.395064,594.906211 679.83062,628.302721 669.704867,657.339427 C756.809769,662.125516 742.521695,710.798725 769.576784,716.702666 C786.561031,719.393927 804.943702,726.805412 816.883377,738.194329 C863.062447,783.931119 821.122575,801.556953 867.986213,809.067234 C922.817566,823.297434 930.569295,882.470401 908.19636,926.370328 C914.262293,937.881823 922.674795,949.31099 921.554592,963.559484 C901.828411,1061.80055 889.409172,993.770757 887.340824,1081.8359 C850.438203,1152.63196 819.94563,1107.5227 805.644744,1155.50618 C757.807335,1218.53399 704.427486,1153.84678 665.033696,1171.4964 C614.792977,1171.1744 587.631726,1136.16606 584.617063,1084.71011 C575.724997,1069.9713 564.986062,1055.74659 567.788399,1038.78305 C569.45772,1023.15325 578.834841,1010.0226 594.964293,999.361846 C647.011614,983.208795 583.009975,954.481283 626.265901,914.068469 C631.288509,906.02396 610.032116,890.796659 609.715457,879.131481 C605.835017,871.280905 612.243235,856.71041 598.222399,863.439476 C571.947059,937.321983 545.051215,1016.36564 518.684356,1091.46845 C499.950249,1131.06529 512.936911,1132.05141 535.031626,1158.728 C558.702311,1157.72175 576.393092,1161.17228 595.189432,1178.4011 C613.46777,1190.65173 617.183475,1209.19234 627.014533,1227.58475 C671.249722,1242.75351 699.113846,1274.87117 692.934428,1322.29845 C722.599661,1345.31596 756.249668,1354.13436 755.442463,1396.16815 C756.059306,1419.41069 747.782254,1438.39405 735.070152,1457.34447 C755.087366,1496.65224 729.650348,1536.6406 697.84172,1562.32009 C693.672077,1665.10392 612.065686,1627.10427 605.613539,1653.2814 C558.634587,1723.37675 499.472516,1649.30214 442.655183,1651.91473 C398.773261,1635.12317 392.271693,1601.42295 394.01606,1558.78907 C384.109955,1537.38157 378.120899,1515.01904 393.146622,1496.41989 C413.445718,1465.95431 449.879757,1480.87608 442.655183,1463.02704 C433.375073,1375.29305 481.724993,1434.9911 451.748592,1359.41809 C426.501935,1234.74742 312.524984,1813.50562 256.785755,1754.80467 C195.472968,1747.09131 244.659379,1689.12401 250.928487,1652.74352 C288.744475,1542.51161 325.193158,1438.23122 362.432571,1328.90677 C275.325839,1299.35596 311.285806,1356.52924 247.426938,1346.90766 C269.860276,1416.97008 218.881907,1500.8108 178.369745,1532.24421 C135.692224,1536.41374 101.368631,1441.50245 107.818948,1413.72813 C104.714596,1396.6292 129.58053,1380.65179 110.899505,1375.39001 C-144.777579,1278.03262 116.421811,1217.23502 154.973619,1248.01345 C160.272616,1208.4221 176.504571,1207.4872 205.331483,1197.05514 C216.392568,1152.13615 247.970566,1150.43651 287.254532,1159.53849 C319.352363,1104.03559 347.331801,1121.86999 389.928785,1139.6239 C404.257128,1122.40788 424.018087,1118.7616 439.451989,1105.66938 C467.539421,1024.31501 497.208315,939.861391 525.079761,856.75249 C506.724546,862.025238 484.454114,860.68967 463.836529,854.712547 C449.079874,874.323438 433.279893,899.31136 402.822097,896.976861 C433.971782,961.801292 406.241278,1031.46304 370.248364,1089.60231 C313.895951,1116.27708 257.50144,988.792566 278.593097,949.263422 C234.065045,944.274253 129.293158,907.934005 146.024811,875.622415 C245.841815,756.809947 296.48156,851.569389 296.408345,788.34764 C301.366888,768.844692 318.032647,762.091843 334.963813,756.464163 C339.633154,708.28676 369.230663,699.611059 410.248015,703.478716 C434.524562,647.615396 459.247726,651.067747 509.212055,666.554844 C542.082312,627.34221 561.133078,621.621224 606.168149,621.714531 C638.963361,530.938007 669.653616,437.933098 701.299339,345.709405 C633.294623,342.350361 676.259517,317.666142 615.12794,349.309949 Z" id="Fill-298" blush:i="0.0.0.0.1.0.0"/></g><path d="M932.63508,446.708693 C912.306698,496.342413 901.254765,428.102222 879.138086,439.200241 C869.934853,443.686285 854.149515,455.437451 845.332496,440.995024 C833.987699,418.992919 873.537073,420.868202 855.379541,406.824616 C773.674309,373.389686 872.120346,349.09516 891.366964,406.817298 C908.977207,416.925533 927.643589,422.662986 932.63508,446.708693" id="Fill-301" blush:i="0.0.0.0.1.1"/><path d="M830.976514,528.098371 C873.90663,520.542351 868.717456,552.005032 829.753809,563.913539 C835.819743,583.822646 815.07037,596.958777 802.005,579.314647 C788.039076,462.382952 852.059019,475.985617 830.976514,528.098371" id="Fill-303" blush:i="0.0.0.0.1.2"/><path d="M594.732565,295.437905 C580.618379,289.221112 565.211933,277.232105 544.6035,274.423754 C515.104833,250.528069 551.537042,240.802209 575.317551,252.192955 C579.831308,245.01931 586.669669,230.543952 600.165181,237.316927 C614.632634,246.715298 601.208507,254.251193 606.730813,268.029495 C618.207398,276.990605 612.145126,295.617201 594.732565,295.437905" id="Fill-305" blush:i="0.0.0.0.1.3"/><path d="M445.100409,477.570552 C445.314565,455.482458 460.047426,419.151357 478.312951,450.978118 C483.661369,498.590192 451.087636,515.820845 445.100409,477.570552" id="Fill-307" blush:i="0.0.0.0.1.4"/><path d="M403.449008,406.609645 C393.916304,403.923873 373.732523,407.71652 366.762374,394.117513 C356.314472,348.296564 465.887488,390.180333 403.449008,406.609645" id="Fill-309" blush:i="0.0.0.0.1.5"/><path d="M828.074604,977.278326 C806.084222,1026.39794 797.259881,962.422422 778.329922,966.467546 C766.587929,967.693341 749.766587,984.177539 739.931867,966.866387 C729.747542,944.167225 767.384152,949.220427 753.226036,933.594285 C669.584244,891.207392 776.131616,878.047476 788.325716,934.49808 C803.975605,945.016133 824.684709,953.587551 828.074604,977.278326" id="Fill-311" blush:i="0.0.0.0.1.6"/><path d="M720.003427,1053.11168 C767.615697,1051.8438 752.835246,1081.59037 716.381073,1090.38133 C720.115081,1107.9596 705.523161,1121.65008 690.158815,1108.64019 C668.305713,1000.70254 747.248877,991.803631 720.003427,1053.11168" id="Fill-313" blush:i="0.0.0.0.1.7"/><path d="M729.407088,802.04599 C781.404988,812.364623 740.200936,837.586727 706.236101,834.154501 C696.796747,847.852303 686.23353,862.691741 673.155348,842.466123 C666.086357,813.30135 693.02613,816.817735 700.311108,794.641823 C708.809638,752.527531 751.750737,759.957313 729.407088,802.04599" id="Fill-315" blush:i="0.0.0.0.1.8"/><path d="M496.416669,803.603848 C480.689904,797.451089 467.04796,783.045253 445.326646,778.981834 C417.457031,755.007479 453.144269,743.481347 476.833258,758.575092 C483.138974,754.917832 486.173771,739.432565 499.817545,742.98737 C516.400936,747.894209 508.667512,760.968136 507.1794,774.186597 C518.183742,784.410094 515.569936,802.979973 496.416669,803.603848" id="Fill-317" blush:i="0.0.0.0.1.9"/><path d="M331.905404,978.521868 C335.818791,934.153577 362.368691,930.893328 366.941021,957.359523 C364.232034,1010.56634 334.017681,1011.12984 331.905404,978.521868" id="Fill-319" blush:i="0.0.0.0.1.10"/><path d="M292.351271,903.870586 C249.274723,902.117882 247.660314,872.543291 273.813017,869.981928 C322.331333,870.829007 324.291687,902.782007 292.351271,903.870586" id="Fill-321" blush:i="0.0.0.0.1.11"/><path d="M680.49359,1111.43006 C682.025631,1130.76835 658.570933,1151.45136 645.174262,1128.75402 C642.598894,1118.61469 652.41531,1118.58907 658.111503,1112.89919 C654.088292,1095.23493 679.732145,1083.14896 680.49359,1111.43006" id="Fill-323" blush:i="0.0.0.0.1.12"/><path d="M617.712642,1492.22566 C608.826068,1460.84348 592.02669,1485.05567 571.365176,1478.14182 C547.820788,1456.13057 579.867367,1456.35195 585.680706,1443.128 C579.704462,1428.40199 541.762176,1423.27926 562.463959,1401.51866 C589.385428,1389.59369 614.062832,1426.26691 618.450292,1448.13546 C628.896364,1456.17448 640.312546,1463.67378 645.50172,1477.34963 C659.200406,1503.70788 621.334997,1524.45858 617.712642,1492.22566" id="Fill-325" blush:i="0.0.0.0.1.13"/><path d="M531.013173,1550.86568 C573.480199,1554.70772 564.278797,1581.96062 522.966751,1585.58495 C521.467657,1601.21475 507.743345,1617.74835 492.283817,1597.96914 C493.343617,1487.64759 566.83403,1496.95265 531.013173,1550.86568" id="Fill-327" blush:i="0.0.0.0.1.14"/><path d="M581.587757,1307.24331 C619.993133,1319.14816 602.586064,1345.3015 552.575975,1334.90786 C541.901103,1348.45747 526.070005,1358.43398 519.54943,1335.91777 C519.405532,1308.6978 541.588105,1315.31527 553.421618,1296.50755 C570.477251,1254.04564 607.874079,1271.19396 581.587757,1307.24331" id="Fill-329" blush:i="0.0.0.0.1.15"/><path d="M188.653095,1381.43995 C215.889392,1382.84504 197.795924,1427.65425 183.685399,1438.01497 C149.808423,1447.7701 168.654184,1383.33536 188.653095,1381.43995" id="Fill-331" blush:i="0.0.0.0.1.16"/><path d="M144.742435,1337.07514 C124.549503,1334.6949 86.5651176,1314.60101 120.052219,1299.1377 C145.220169,1298.11498 186.524893,1327.80667 144.742435,1337.07514" id="Fill-333" blush:i="0.0.0.0.1.17"/></g></g></g></g></g></svg>