<?xml version="1.0" standalone="no"?>
<!DOCTYPE svg PUBLIC "-//W3C//DTD SVG 20010904//EN"
 "http://www.w3.org/TR/2001/REC-SVG-20010904/DTD/svg10.dtd">
<svg version="1.0" xmlns="http://www.w3.org/2000/svg"
 width="400.000000pt" height="372.000000pt" viewBox="0 0 400.000000 372.000000"
 preserveAspectRatio="xMidYMid meet">

<g transform="translate(0.000000,372.000000) scale(0.100000,-0.100000)"
fill="#000000" stroke="none">
<path d="M2175 3528 c-8 -13 -39 -37 -68 -54 -45 -26 -52 -35 -55 -65 -2 -19
1 -51 7 -71 11 -35 9 -40 -23 -82 -19 -25 -38 -55 -41 -67 -5 -16 -12 -19 -28
-15 -102 29 -197 10 -272 -56 -54 -48 -95 -124 -95 -179 0 -29 -10 -47 -50
-93 -47 -54 -56 -74 -62 -151 -3 -26 -9 -31 -66 -51 -75 -26 -94 -41 -127
-107 -43 -88 -26 -198 42 -269 15 -15 25 -29 22 -31 -2 -2 -31 -24 -64 -49
-71 -54 -211 -195 -291 -293 -202 -249 -347 -555 -355 -750 -2 -55 -3 -55 -34
-55 -112 0 -258 -61 -338 -142 -73 -73 -102 -135 -102 -218 2 -256 375 -442
1033 -515 267 -29 547 -37 1127 -32 576 5 659 9 894 48 307 51 506 146 574
274 32 58 31 209 -1 279 -46 101 -118 165 -211 189 l-51 13 -5 124 c-14 375
-142 761 -328 990 l-49 61 27 21 c32 25 55 75 55 117 0 16 11 53 25 83 49 105
27 182 -65 228 -44 22 -64 40 -82 72 -17 32 -37 51 -79 72 -55 29 -57 31 -62
79 -7 55 -43 140 -82 192 -15 19 -51 46 -81 61 -47 23 -64 26 -114 21 l-58 -5
-17 52 c-20 63 -68 139 -103 164 -24 18 -25 20 -8 43 30 43 39 95 22 128 -25
47 -71 54 -137 21 l-39 -21 -58 31 c-69 36 -105 38 -127 8z m92 -68 c31 -24
93 -26 151 -6 22 8 43 12 46 9 10 -11 6 -47 -9 -73 -13 -24 -17 -25 -117 -25
-57 -1 -126 -5 -154 -9 -48 -8 -52 -7 -59 13 -8 27 2 43 23 37 23 -7 36 3 56
42 19 37 29 39 63 12z m173 -193 c68 -33 105 -100 105 -186 -1 -43 -7 -78 -18
-98 -22 -41 -78 -98 -117 -118 -29 -15 -31 -15 -80 24 -49 39 -147 71 -215 71
-54 0 -74 128 -32 210 56 111 231 159 357 97z m-500 -182 c66 -34 79 -105 32
-171 -49 -67 -58 -71 -90 -41 -37 36 -93 57 -148 57 l-47 0 6 37 c8 45 32 80
77 111 39 26 125 30 170 7z m857 -86 c47 -29 93 -103 93 -149 0 -43 -22 -67
-67 -76 -27 -5 -33 -2 -59 37 -38 55 -68 76 -131 91 -29 7 -53 16 -53 19 0 19
50 77 80 92 42 22 86 17 137 -14z m-582 -143 c28 -12 70 -39 93 -60 24 -20 53
-36 63 -36 11 0 43 14 73 30 112 64 222 46 264 -43 30 -64 42 -68 141 -50 116
22 148 11 199 -65 25 -38 52 -65 83 -82 73 -40 82 -50 76 -87 -3 -18 -15 -45
-25 -58 -12 -15 -23 -50 -27 -84 -12 -108 -38 -114 -138 -37 -72 56 -225 135
-341 175 -119 42 -244 61 -401 61 -233 0 -382 -34 -659 -151 -139 -59 -180
-68 -218 -48 -43 23 -62 123 -33 179 21 41 61 65 129 78 83 17 86 21 83 107
-2 69 0 75 27 104 38 40 105 65 152 58 22 -4 56 -22 85 -47 26 -22 54 -40 63
-40 8 0 41 21 72 46 32 26 69 53 83 60 39 21 100 17 156 -10z m357 -449 c411
-108 697 -408 813 -852 40 -157 56 -307 54 -528 -1 -109 1 -201 4 -204 12 -12
56 8 62 28 6 19 13 21 57 17 39 -4 56 -12 84 -39 75 -73 97 -224 44 -303 -113
-167 -568 -239 -1515 -239 -594 -1 -990 28 -1315 93 -474 95 -647 242 -539
459 19 37 41 67 57 75 20 10 251 76 268 76 1 0 10 -25 18 -55 70 -240 410
-423 931 -501 143 -22 484 -29 630 -15 477 49 804 205 932 447 88 164 79 378
-22 589 -93 192 -349 359 -640 416 -103 20 -331 18 -435 -4 -214 -46 -400
-164 -505 -322 -52 -79 -95 -202 -95 -273 1 -261 242 -472 540 -472 136 1 239
40 316 122 54 58 81 118 94 210 11 78 7 102 -27 171 -48 97 -134 157 -233 165
-94 7 -186 -32 -241 -102 -32 -41 -37 -120 -10 -163 51 -81 151 -117 202 -73
l24 20 -23 19 c-12 11 -40 22 -62 26 -97 16 -92 140 6 181 73 31 160 5 233
-67 116 -117 55 -308 -127 -395 -110 -53 -271 -43 -395 24 -70 38 -160 138
-188 209 -47 121 -23 266 62 373 156 198 529 326 819 281 248 -38 507 -200
615 -386 134 -228 70 -526 -149 -692 -118 -89 -327 -167 -538 -200 -162 -26
-662 -26 -828 0 -425 66 -687 201 -782 404 -28 58 -33 82 -36 164 -5 121 16
203 96 372 152 318 335 534 607 716 127 85 242 141 392 190 179 60 258 71 468
67 154 -3 194 -7 277 -29z"/>
<path d="M2383 3203 c-19 -7 -15 -48 6 -67 44 -40 81 6 40 50 -23 25 -26 26
-46 17z"/>
<path d="M2153 3182 c-37 -24 -14 -109 24 -86 22 13 30 73 11 85 -16 11 -20
11 -35 1z"/>
<path d="M2295 3090 c-17 -18 -17 -21 -1 -45 22 -33 50 -29 54 8 3 27 -12 57
-28 57 -4 0 -15 -9 -25 -20z"/>
<path d="M2190 3016 c-27 -33 25 -80 55 -50 14 14 14 19 2 38 -18 27 -40 31
-57 12z"/>
<path d="M2406 2995 c-9 -9 -16 -20 -16 -25 0 -14 31 -41 43 -37 21 7 32 36
21 54 -15 24 -29 26 -48 8z"/>
</g>
</svg>
